<svg xmlns="http://www.w3.org/2000/svg" xmlns:xlink="http://www.w3.org/1999/xlink" viewBox="0 0 408.82 408.38"><defs><style>.cls-1{fill:url(#linear-gradient);}.cls-2{fill:url(#linear-gradient-2);}.cls-3{fill:#2b374b;}.cls-4{fill:none;}.cls-5{fill:url(#linear-gradient-3);}.cls-6{fill:url(#linear-gradient-4);}.cls-7{font-size:129.12px;fill:#fff;font-family:Swiss721BT-BoldOutline, Swis721 BdOul BT;font-weight:700;}.cls-8{fill:url(#linear-gradient-5);}.cls-9{fill:url(#linear-gradient-6);}.cls-10{fill:url(#linear-gradient-7);}.cls-11{fill:url(#linear-gradient-8);}</style><linearGradient id="linear-gradient" x1="118.25" y1="117.8" x2="256.74" y2="256.28" gradientTransform="translate(16.91 18.15)" gradientUnits="userSpaceOnUse"><stop offset="0" stop-color="#8536ff"/><stop offset="1" stop-color="#92baff"/></linearGradient><linearGradient id="linear-gradient-2" x1="131.17" y1="134.95" x2="271.65" y2="275.43" gradientTransform="matrix(1, 0, 0, 1, 0, 0)" xlink:href="#linear-gradient"/><linearGradient id="linear-gradient-3" x1="90.3" y1="262.83" x2="224.48" y2="128.65" gradientUnits="userSpaceOnUse"><stop offset="0" stop-color="#fe5a19"/><stop offset="1" stop-color="#f2db00"/></linearGradient><linearGradient id="linear-gradient-4" x1="161.83" y1="103.5" x2="319.84" y2="261.51" gradientUnits="userSpaceOnUse"><stop offset="0" stop-color="#00ff62"/><stop offset="0.99" stop-color="#00a4c3"/></linearGradient><linearGradient id="linear-gradient-5" x1="216.63" y1="30.3" x2="420.7" y2="148.12" gradientUnits="userSpaceOnUse"><stop offset="0" stop-color="#fe0019"/><stop offset="1" stop-color="#a00"/></linearGradient><linearGradient id="linear-gradient-6" x1="-3.36" y1="168.53" x2="168.14" y2="-2.97" gradientUnits="userSpaceOnUse"><stop offset="0" stop-color="#f27c59"/><stop offset="1" stop-color="#f49a7b"/></linearGradient><linearGradient id="linear-gradient-7" x1="-2.63" y1="241.55" x2="167.66" y2="411.84" gradientTransform="matrix(1, 0, 0, 1, 0, 0)" xlink:href="#linear-gradient"/><linearGradient id="linear-gradient-8" x1="241.16" y1="411.84" x2="411.45" y2="241.55" gradientUnits="userSpaceOnUse"><stop offset="0" stop-color="#feba2d"/><stop offset="1" stop-color="#ff780c"/></linearGradient></defs><g id="Layer_2" data-name="Layer 2"><g id="Layer_1-2" data-name="Layer 1"><rect class="cls-1" x="198.41" y="69.19" width="12" height="272" rx="6" transform="translate(409.6 0.78) rotate(90)"/><rect class="cls-2" x="195.41" y="67.19" width="12" height="276" rx="6"/><circle class="cls-3" cx="204.41" cy="204.41" r="84.6"/><path class="cls-4" d="M100.22,204.41a104.21,104.21,0,0,0,67.29,97.46l8.38-8.93-8.38,8.93a104.54,104.54,0,0,0,77.56-1.5l-10.4-11.09,10.4,11.09a104.21,104.21,0,0,0-40.66-200.15c-3,0-6,.14-9,.39l6.73,7.18-6.73-7.18A104.2,104.2,0,0,0,100.22,204.41Z"/><path class="cls-5" d="M100.22,204.41a104.2,104.2,0,0,1,95.23-103.8L180.58,84.75a122,122,0,0,0-32.17,228.08A8.91,8.91,0,0,0,159,311h0a8.91,8.91,0,0,0-2.42-14A104.19,104.19,0,0,1,100.22,204.41Z"/><path class="cls-6" d="M326.41,204.41A122,122,0,0,0,180.58,84.75l14.87,15.86c3-.25,5.94-.39,9-.39a104.21,104.21,0,0,1,51,195.06,8.9,8.9,0,0,0-2.15,13.85h0a8.91,8.91,0,0,0,10.86,1.68A122,122,0,0,0,326.41,204.41Z"/><text class="cls-7" transform="translate(154.06 248.58)">C</text><path class="cls-8" d="M242,45.65a164,164,0,0,1,121.93,122,21.94,21.94,0,0,0,21.3,17.07H387A21.84,21.84,0,0,0,408.27,158,209.3,209.3,0,0,0,251.71.57a21.84,21.84,0,0,0-26.8,21.25v2.54A21.93,21.93,0,0,0,242,45.65Z"/><path class="cls-9" d="M44.92,167.62a164,164,0,0,1,121.93-122,21.93,21.93,0,0,0,17.06-21.29V21.82A21.84,21.84,0,0,0,157.11.57,209.3,209.3,0,0,0,.55,158a21.84,21.84,0,0,0,21.27,26.7h1.8A21.94,21.94,0,0,0,44.92,167.62Z"/><path class="cls-10" d="M166.85,364.61A164,164,0,0,1,44.94,242.74a21.94,21.94,0,0,0-21.29-17.05H22.27A21.83,21.83,0,0,0,1,252.57,209.3,209.3,0,0,0,157.13,407.81a21.83,21.83,0,0,0,26.78-21.25v-.66A21.93,21.93,0,0,0,166.85,364.61Z"/><path class="cls-11" d="M363.88,242.74A164.06,164.06,0,0,1,242,364.61a21.93,21.93,0,0,0-17.06,21.29v.66a21.83,21.83,0,0,0,26.78,21.25A209.31,209.31,0,0,0,407.78,252.57a21.83,21.83,0,0,0-21.23-26.88h-1.38A21.93,21.93,0,0,0,363.88,242.74Z"/></g></g></svg>